<?xml version="1.0" standalone="no"?>
<!DOCTYPE svg PUBLIC "-//W3C//DTD SVG 20010904//EN"
 "http://www.w3.org/TR/2001/REC-SVG-20010904/DTD/svg10.dtd">
<svg version="1.0" xmlns="http://www.w3.org/2000/svg"
 width="985.000000pt" height="985.000000pt" viewBox="0 0 985.000000 985.000000"
 preserveAspectRatio="xMidYMid meet">
<metadata>
Created by potrace 1.14, written by Peter Selinger 2001-2017
</metadata>
<g transform="translate(0.000000,985.000000) scale(0.100000,-0.100000)"
fill="#000000" stroke="none">
<path d="M4800 7777 c-3 -3 -41 -7 -85 -11 -219 -18 -482 -79 -710 -164 -331
-123 -689 -335 -925 -547 -77 -69 -263 -257 -316 -320 -94 -111 -284 -380
-284 -401 0 -4 -6 -15 -14 -23 -23 -26 -140 -268 -189 -391 -41 -102 -110
-310 -121 -365 -3 -11 -12 -53 -20 -92 -9 -40 -18 -87 -21 -105 -3 -18 -8 -40
-10 -48 -5 -19 -18 -129 -31 -265 -5 -60 -6 -388 0 -430 2 -16 7 -61 10 -100
4 -38 11 -95 16 -125 5 -30 12 -71 15 -90 23 -151 101 -419 171 -588 343 -828
1038 -1458 1892 -1711 102 -30 297 -74 382 -86 25 -3 52 -8 60 -10 71 -19 518
-27 679 -12 68 6 242 31 286 41 6 1 37 8 70 15 148 32 316 83 455 138 464 184
885 497 1204 893 195 242 346 504 466 804 66 166 137 444 155 611 4 33 9 69
11 80 10 50 18 214 18 365 0 188 -8 302 -31 435 -2 17 -6 41 -8 55 -3 21 -20
105 -40 192 -84 376 -289 803 -540 1123 -230 294 -544 565 -865 748 -224 128
-547 256 -760 302 -8 2 -44 10 -80 18 -36 9 -85 18 -110 22 -25 4 -49 8 -55 9
-5 2 -32 6 -60 10 -27 4 -61 10 -75 13 -31 6 -534 16 -540 10z"/>
</g>
</svg>
